<svg xmlns="http://www.w3.org/2000/svg" viewBox="0 0 271.75 74.04"><defs><style type="text/css">.cls-1,.cls-3{fill:#ff5f01;}.cls-2{fill:#001d3d;}.cls-3{opacity:0.64;isolation:isolate;}</style></defs><g id="brand"><path id="e" class="cls-1" d="M110.08,82.79H74.67v4.66L58.05,76,74.67,64.77V71H95.3c-.73-6.13-1-9.78-5.23-13.67S81.85,52,75.6,52c-.62,0-1.24,0-1.85,0h-.31C61.37,52,51.58,62.88,51.58,76.26s9.79,24.24,21.86,24.24c.44,0,.88,0,1.32,0v0l.84.08h4c3.23,0,5.24,3.82,5.24,7A5.8,5.8,0,0,1,79,113.24h-3.7a5.39,5.39,0,0,1-.8-.06,40.53,40.53,0,0,1-16.87-4.47A33.64,33.64,0,0,1,44,95.47a36,36,0,0,1-4.82-18.6,41.2,41.2,0,0,1,4.69-19.7A33.77,33.77,0,0,1,56.74,43.93,36.52,36.52,0,0,1,75.3,39.2c6.89,0,13.07,1.29,18.46,4.44s9.89,7.07,12.93,12.74,3.39,12.88,3.39,20.2C110.08,77.58,110.26,81.14,110.08,82.79ZM95.14,94.6a6.68,6.68,0,1,1-6.61,6.74v-.06A6.65,6.65,0,0,1,95.14,94.6Z" transform="translate(-39.12 -39.2)"/></g><path id="booking" class="cls-2" d="M152.31,97.76A4.22,4.22,0,0,0,154,96.15a4.6,4.6,0,0,0,.62-2.38,4.05,4.05,0,0,0-1.72-3.45,8.16,8.16,0,0,0-4.9-1.26h-8.42v18.13h8.93a8.92,8.92,0,0,0,5.23-1.29,4.16,4.16,0,0,0,1.8-3.63,4.6,4.6,0,0,0-.87-2.87,4.73,4.73,0,0,0-2.36-1.64Zm-4.67-6.06a4.75,4.75,0,0,1,2.68.63,2.13,2.13,0,0,1,.94,1.88,2.11,2.11,0,0,1-.94,1.85,4.76,4.76,0,0,1-2.68.64h-4.72v-5Zm.67,12.84h-5.39V99.31h5.39q3.87,0,3.87,2.62t-3.87,2.61Zm26.11,2.9a10,10,0,0,0,5-1.2,8.93,8.93,0,0,0,3.47-3.32,9.79,9.79,0,0,0,0-9.58A8.91,8.91,0,0,0,179.37,90a10.81,10.81,0,0,0-9.9,0A8.82,8.82,0,0,0,166,93.34a9.7,9.7,0,0,0,0,9.56,8.89,8.89,0,0,0,3.46,3.34,10.33,10.33,0,0,0,5,1.2h0Zm0-3a6.41,6.41,0,0,1-3.23-.81,6,6,0,0,1-2.26-2.28,7,7,0,0,1,0-6.55,5.83,5.83,0,0,1,2.26-2.28,6.81,6.81,0,0,1,6.47,0,5.8,5.8,0,0,1,2.25,2.28,6.91,6.91,0,0,1,0,6.55,5.94,5.94,0,0,1-2.25,2.28,6.44,6.44,0,0,1-3.24.81Zm28.53,3a10,10,0,0,0,5-1.2,8.93,8.93,0,0,0,3.47-3.32,9.79,9.79,0,0,0,0-9.58A8.91,8.91,0,0,0,207.9,90a10.81,10.81,0,0,0-9.9,0,8.82,8.82,0,0,0-3.46,3.34,9.7,9.7,0,0,0,0,9.56,8.82,8.82,0,0,0,3.46,3.34,10.18,10.18,0,0,0,4.95,1.2Zm0-3a6.41,6.41,0,0,1-3.23-.81,6,6,0,0,1-2.26-2.28,7,7,0,0,1,0-6.55,5.83,5.83,0,0,1,2.26-2.28,6.81,6.81,0,0,1,6.47,0,5.8,5.8,0,0,1,2.25,2.28,6.91,6.91,0,0,1,0,6.55,5.94,5.94,0,0,1-2.25,2.28,6.44,6.44,0,0,1-3.24.81Zm32.66,2.7h3.9l-8-10,7.55-8.1h-3.75l-8.88,9.3v-9.3H223.1v18.12h3.33v-4.63l2.85-3Zm13.11,0h3.34V89.06h-3.34Zm27.76-18.13v12.27l-9.9-12.27h-2.74v18.13h3.31V94.91l9.9,12.28h2.74V89.06Zm27.33,14.5a7.17,7.17,0,0,1-3.7.93,6.77,6.77,0,0,1-3.35-.83,5.93,5.93,0,0,1-2.3-2.28,6.32,6.32,0,0,1-.84-3.26,6.56,6.56,0,0,1,.84-3.32,5.85,5.85,0,0,1,2.3-2.25,7,7,0,0,1,3.38-.8,6.71,6.71,0,0,1,4.95,2.07l2.1-2.07a8.11,8.11,0,0,0-3.1-2.2A10.89,10.89,0,0,0,300,88.8a10.36,10.36,0,0,0-5,1.2,8.89,8.89,0,0,0-3.47,3.33,9.73,9.73,0,0,0,0,9.58,8.79,8.79,0,0,0,3.46,3.33,10.29,10.29,0,0,0,4.95,1.2,12.27,12.27,0,0,0,3.8-.6,10,10,0,0,0,3.23-1.71V97.91h-3.15v5.65Z" transform="translate(-39.12 -39.2)"/><g id="easync"><path id="S" class="cls-3" d="M211.08,45.19A19.58,19.58,0,1,1,191.69,65v-.18A19.49,19.49,0,0,1,211.08,45.19Zm-1.57,34.28a16.28,16.28,0,0,0,6.59-.36,8.92,8.92,0,0,0,4.36-2.64,7.67,7.67,0,0,0,1.85-4.21,6.46,6.46,0,0,0-.9-4.61,8.53,8.53,0,0,0-3.17-2.82,45.13,45.13,0,0,0-5-2.16,24.25,24.25,0,0,1-4.36-1.94,2.3,2.3,0,0,1-1.22-2.32,2.71,2.71,0,0,1,1.57-2.16,7.2,7.2,0,0,1,4.08-.38A15.48,15.48,0,0,1,220.72,59l2.57-4.67a15.33,15.33,0,0,0-4.2-2.38,21.45,21.45,0,0,0-5.1-1.29,16.17,16.17,0,0,0-6.57.36,8.78,8.78,0,0,0-4.32,2.65,7.81,7.81,0,0,0-1.84,4.25,6.66,6.66,0,0,0,.9,4.65,8.44,8.44,0,0,0,3.16,2.86,43.32,43.32,0,0,0,5,2.16c1.33.49,2.39.92,3.16,1.29a6,6,0,0,1,1.85,1.3,2.12,2.12,0,0,1,.56,1.75,2.49,2.49,0,0,1-1.57,2,7.84,7.84,0,0,1-4.13.31,15.84,15.84,0,0,1-4.81-1.4,14.94,14.94,0,0,1-4-2.64l-2.77,4.6a14.93,14.93,0,0,0,4.64,2.94,22.55,22.55,0,0,0,6.24,1.69h0Z" transform="translate(-39.12 -39.2)"/><path id="ea" class="cls-1" d="M168.33,64.71a16.27,16.27,0,0,0-1.86-7.86,13.2,13.2,0,0,0-5.17-5.28,15,15,0,0,0-7.52-1.87,15.37,15.37,0,0,0-7.65,1.9,13.66,13.66,0,0,0-5.31,5.3,15.34,15.34,0,0,0-1.91,7.64,15,15,0,0,0,2,7.7,13.67,13.67,0,0,0,5.57,5.3,19.29,19.29,0,0,0,15,.7,12.16,12.16,0,0,0,4.9-3.53l-3.61-4.19A10.41,10.41,0,0,1,155,73.67a10.1,10.1,0,0,1-6.22-1.87,7.89,7.89,0,0,1-3.1-5.09h22.57c.08-.87.11-1.54.11-2h0Zm-14.55-9.58a7.88,7.88,0,0,1,8.13,7.07H145.59a8,8,0,0,1,8.19-7.07Zm29.58-5.43a24.36,24.36,0,0,0-6.74.92,16.34,16.34,0,0,0-5.44,2.67l2.64,5a11.59,11.59,0,0,1,4-2.12,15.16,15.16,0,0,1,4.77-.76A7.68,7.68,0,0,1,187.91,57a6,6,0,0,1,1.81,4.67v.44h-7.44q-6.19,0-9.08,2.37a7.74,7.74,0,0,0-2.88,6.28,7.94,7.94,0,0,0,1.32,4.48,8.72,8.72,0,0,0,3.75,3.1A13.39,13.39,0,0,0,181,79.45a13.56,13.56,0,0,0,5.52-1,7.84,7.84,0,0,0,3.53-2.91v3.54h6.36V62q0-6.19-3.37-9.27t-9.72-3.07Zm-.92,24.8a6.65,6.65,0,0,1-4-1.09A3.46,3.46,0,0,1,177,70.48q0-3.87,5.82-3.87h6.95V70a6.39,6.39,0,0,1-2.78,3.34,8.65,8.65,0,0,1-4.5,1.17Z" transform="translate(-39.12 -39.2)"/><path id="YNC" class="cls-1" d="M252.05,50.37h-6.53l-7.67,12.89-7.68-12.89h-7.06L234.23,69V79.37h6.65V69.1Zm21.06,0V68L258.82,50.37h-5.5v29h6.57V61.76l14.33,17.61h5.46v-29ZM299,79.87a16.92,16.92,0,0,0,6.77-1.32,13.42,13.42,0,0,0,5.09-3.86l-4.27-4a9.1,9.1,0,0,1-7.22,3.44A9.5,9.5,0,0,1,294.62,73a8.41,8.41,0,0,1-3.27-3.29,10.45,10.45,0,0,1,0-9.61,8.37,8.37,0,0,1,3.27-3.3,9.5,9.5,0,0,1,4.76-1.18A9.15,9.15,0,0,1,306.6,59l4.27-4a13.52,13.52,0,0,0-5.07-3.81,17.66,17.66,0,0,0-14.74.6,14.34,14.34,0,0,0-5.58,5.35,15.7,15.7,0,0,0,0,15.45,14.32,14.32,0,0,0,5.58,5.34A16.34,16.34,0,0,0,299,79.87Z" transform="translate(-39.12 -39.2)"/></g></svg>